<svg xmlns="http://www.w3.org/2000/svg" xmlns:xlink="http://www.w3.org/1999/xlink" version="1.1" x="0px" y="0px" viewBox="0 0 140 100" enable-background="new 0 0 128 128" xml:space="preserve"><path d="M120,28H8c-4.4,0-8,3.6-8,8v32c0,4.4,3.6,8,8,8h81.264l-0.955-4H8c-2.206,0-4-1.794-4-4V36c0-2.206,1.794-4,4-4h112  c2.206,0,4,1.794,4,4v32c0,1.907-1.343,3.5-3.132,3.898l0.358,0.109c1.417,0.431,2.569,1.364,3.32,2.56  C126.629,73.119,128,70.714,128,68V36C128,31.6,124.4,28,120,28z"/><path d="M114.174,81.744l5.973-2.11c0.815-0.288,1.353-1.066,1.333-1.931c-0.019-0.863-0.591-1.617-1.417-1.868l-25.48-7.748  c-0.686-0.21-1.431-0.034-1.952,0.456c-0.522,0.491-0.741,1.225-0.575,1.922l5.773,24.184c0.192,0.805,0.86,1.408,1.681,1.518  c0.82,0.106,1.623-0.297,2.02-1.023l3.009-5.509l9.558,9.766c0.391,0.398,0.909,0.601,1.431,0.601c0.452,0,0.907-0.153,1.28-0.464  l6.476-5.4c0.429-0.357,0.688-0.878,0.716-1.436c0.028-0.557-0.178-1.101-0.567-1.5L114.174,81.744z M115.662,95.281l-10.156-10.377  c-0.379-0.387-0.896-0.601-1.43-0.601c-0.091,0-0.183,0.006-0.274,0.019c-0.628,0.087-1.177,0.467-1.48,1.022l-1.811,3.315  l-3.756-15.732l16.32,4.963l-3.189,1.127c-0.645,0.228-1.128,0.768-1.282,1.434c-0.154,0.665,0.041,1.363,0.519,1.852l9.934,10.148  L115.662,95.281z"/><text x="0" y="143" fill="#000000" font-size="5px" font-weight="bold" font-family="'Helvetica Neue', Helvetica, Arial-Unicode, Arial, Sans-serif">Created by priyanka</text><text x="0" y="148" fill="#000000" font-size="5px" font-weight="bold" font-family="'Helvetica Neue', Helvetica, Arial-Unicode, Arial, Sans-serif">from the Noun Project</text></svg>