<?xml version="1.0" encoding="utf-8"?>
<!-- Generator: Adobe Illustrator 21.1.0, SVG Export Plug-In . SVG Version: 6.00 Build 0)  -->
<svg version="1.1" id="Layer_1" xmlns="http://www.w3.org/2000/svg" xmlns:xlink="http://www.w3.org/1999/xlink" x="0px" y="0px"
	 viewBox="0 0 46 46" style="enable-background:new 0 0 46 46;" xml:space="preserve">
<path class="flou-palette stroke-none" d="M23,0C10.3,0,0,10.3,0,23c0,12.7,10.3,23,23,23c12.7,0,23-10.3,23-23C46,10.3,35.7,0,23,0z M23,44
	C11.4,44,2,34.6,2,23S11.4,2,23,2s21,9.4,21,21S34.6,44,23,44z M35,23c0,0.6-0.4,1-1,1H24v10c0,0.6-0.4,1-1,1c-0.6,0-1-0.4-1-1V24
	H12c-0.6,0-1-0.4-1-1c0-0.6,0.4-1,1-1h10V12c0-0.6,0.4-1,1-1c0.6,0,1,0.4,1,1v10h10C34.6,22,35,22.4,35,23z"/>
</svg>
