<svg xmlns="http://www.w3.org/2000/svg" width="30px" viewBox="0 0 60 60" height="30px" x="0px" y="0px"><path fill="white" fill-rule="evenodd" d="M556,75 C556,69.4833851 551.520092,65 546,65 C540.483385,65 536,69.4799075 536,75 C536,80.5166149 540.479908,85 546,85 C551.516615,85 556,80.5200925 556,75 Z M552,75 C552,78.3102584 549.30817,81 546,81 C542.689742,81 540,78.3081704 540,75 C540,71.6897416 542.69183,69 546,69 C549.310258,69 552,71.6918296 552,75 Z M556,101 C556,95.4833851 551.520092,91 546,91 C540.483385,91 536,95.4799075 536,101 C536,106.516615 540.479908,111 546,111 C551.516615,111 556,106.520092 556,101 Z M552,101 C552,104.310258 549.30817,107 546,107 C542.689742,107 540,104.30817 540,101 C540,97.6897416 542.69183,95 546,95 C549.310258,95 552,97.6918296 552,101 Z M549,75 C549,76.6568542 547.653483,78 546,78 C544.343146,78 543,76.6534829 543,75 C543,73.3431458 544.346517,72 546,72 C547.656854,72 549,73.3465171 549,75 Z M564,77 L602,77 C603.104569,77 604,76.1045695 604,75 C604,73.8954305 603.104569,73 602,73 L564,73 C562.895431,73 562,73.8954305 562,75 C562,76.1045695 562.895431,77 564,77 Z M564,103 L592,103 C593.104569,103 594,102.104569 594,101 C594,99.8954305 593.104569,99 592,99 L564,99 C562.895431,99 562,99.8954305 562,101 C562,102.104569 562.895431,103 564,103 Z" transform="translate(-536 -65)"/></svg>
