<?xml version="1.0" encoding="utf-8"?>
<!-- Generator: Adobe Illustrator 21.1.0, SVG Export Plug-In . SVG Version: 6.00 Build 0)  -->
<svg version="1.1" id="Layer_1" xmlns="http://www.w3.org/2000/svg" xmlns:xlink="http://www.w3.org/1999/xlink" x="0px" y="0px"
	 viewBox="0 0 20 20" style="enable-background:new 0 0 20 20;" xml:space="preserve">
<style type="text/css">
	.st0{fill:#FFFFFF;}
</style>
<path id="remove_description" class="st0" d="M15,14.2L10.8,10L15,5.8c0.2-0.2,0.2-0.6,0-0.8s-0.6-0.2-0.8,0L10,9.2L5.8,5
	C5.6,4.8,5.2,4.8,5,5c0,0,0,0,0,0C4.8,5.2,4.8,5.6,5,5.8c0,0,0,0,0,0L9.2,10L5,14.2c-0.2,0.2-0.2,0.6,0,0.8s0.6,0.2,0.8,0l4.2-4.2
	l4.2,4.2c0.2,0.2,0.6,0.2,0.8,0S15.2,14.4,15,14.2L15,14.2z"/>
</svg>
